<mxfile host="app.diagrams.net" modified="2023-05-07T16:45:44.236Z" agent="Mozilla/5.0 (Windows NT 10.0; Win64; x64) AppleWebKit/537.36 (KHTML, like Gecko) Chrome/113.0.0.0 Safari/537.36" version="21.1.2" etag="3QqkkrzNJq8WmNtOcm9Z" type="github">
  <diagram name="페이지-1" id="neIG8IXZOqJe70y16uxo">
    <mxGraphModel>
      <root>
        <mxCell id="0" />
        <mxCell id="1" parent="0" />
      </root>
    </mxGraphModel>
  </diagram>
</mxfile>
